<svg xmlns="http://www.w3.org/2000/svg" viewBox="0 0 192 192" aria-hidden="true" focusable="false">
  <path fill="currentColor" d="M141.537 88.9883C140.71 88.5919 139.87 88.2104 139.019 87.8451C137.537 60.5382 122.616 44.905 97.5619 44.745C97.4484 44.7443 97.3355 44.7443 97.222 44.7443C82.2364 44.7443 69.7731 51.1409 62.102 62.7807L75.881 72.2328C81.6116 63.5383 90.6514 61.6864 97.2286 61.6864C97.3051 61.6864 97.3819 61.6864 97.4576 61.6876C105.707 61.7418 111.932 64.1602 115.961 68.8624C118.893 72.2959 120.854 76.9998 121.825 83.0032C114.511 81.8782 106.601 81.5506 98.1388 82.0354C74.5894 83.3924 59.9195 97.0833 60.7666 116.127C61.1982 125.781 65.9444 134.068 74.2148 139.516C81.1806 144.167 90.1648 146.442 99.5388 145.955C111.938 145.312 121.733 140.558 128.633 131.831C133.813 125.241 137.042 116.78 138.393 106.124C144.928 109.946 149.799 115.336 152.487 122.058C157.053 133.53 157.301 152.774 143.454 166.633C131.346 178.746 116.955 184.134 96.8126 184.29C74.4099 184.12 57.5983 177.039 46.9533 163.22C36.9182 149.209 31.7291 128.726 31.5571 102.359C31.7291 75.9923 36.9182 55.5089 46.9533 41.4981C57.5983 27.6789 74.4099 20.5983 96.8126 20.4283C119.381 20.5991 136.515 27.7129 147.558 41.5985C153.004 48.4526 157.027 57.0776 159.568 67.0757L175.212 63.0379C172.112 50.788 167.063 40.3217 159.889 32.1419C146.053 15.9568 126.115 7.60693 96.9506 7.39331C67.8382 7.60697 48.1118 16.0158 34.5578 32.1919C22.3776 46.6497 15.9886 67.7977 15.7666 102.346C15.9886 136.894 22.3776 158.042 34.5578 172.499C48.1118 188.676 67.8382 197.085 96.9506 197.298C119.142 197.124 135.945 191.26 149.477 177.727C166.261 160.939 165.74 139.77 159.786 125.537C155.648 115.581 147.927 107.414 138.216 102.637L141.537 88.9883ZM98.4388 129.025C88.0353 129.577 77.1911 125.084 76.7266 114.909C76.3959 107.549 82.1972 99.4019 98.6333 98.4695C100.685 98.3511 102.698 98.2935 104.67 98.2935C110.046 98.2935 115.123 98.7832 119.799 99.7114C118.255 118.651 107.138 128.475 98.4388 129.025Z"/>
</svg>
