<svg xmlns="http://www.w3.org/2000/svg" viewBox="0 0 24 24" aria-hidden="true" focusable="false">
  <path fill="currentColor" d="M12.186 24h-.007c-3.581-.024-6.334-1.205-8.184-3.509C2.35 18.44 1.5 15.586 1.473 12.01v-.017c.027-3.579.877-6.43 2.525-8.482C5.845 1.205 8.6.024 12.18 0h.014c2.746.018 5.1.62 6.999 1.79 1.801 1.106 3.07 2.7 3.772 4.742l-2.498.87c-1.156-3.301-3.667-4.986-7.27-5.01-2.916.02-5.043.875-6.318 2.543-1.233 1.614-1.89 4.038-1.913 7.212.023 3.17.68 5.591 1.913 7.207 1.278 1.667 3.402 2.521 6.316 2.54 2.588-.019 4.52-.726 5.748-2.101.895-1.009 1.376-2.326 1.453-4.011-.676.157-1.362.253-2.049.285-.88 1.956-2.538 3.031-4.929 3.031h-.004c-1.626 0-3.018-.528-3.921-1.487-.97-1.03-1.414-2.496-1.291-4.166.12-1.628.774-2.94 1.892-3.788 1.032-.789 2.354-1.128 3.831-.982.93.093 1.804.34 2.597.738.101-.434.15-.884.145-1.344-.012-.992-.388-1.775-1.116-2.324-.793-.6-1.925-.904-3.367-.904h-.037c-1.083.008-2.016.27-2.771.78-.727.492-1.227 1.198-1.488 2.098l-2.42-.805c.377-1.35 1.1-2.448 2.148-3.268 1.074-.841 2.397-1.288 3.918-1.299h.054c1.867 0 3.39.432 4.527 1.284 1.157.864 1.778 2.115 1.797 3.617.006.498-.04 1.005-.135 1.508.48.339.919.724 1.312 1.147.943 1.02 1.469 2.306 1.469 3.621 0 .133-.005.266-.014.397-.185 3.494-1.411 5.975-3.645 7.377-1.516.951-3.446 1.442-5.74 1.455zm.553-9.077c-1.07 0-1.883.271-2.419.806-.572.571-.808 1.41-.698 2.439.11.992.534 1.636 1.258 1.913.335.127.7.192 1.083.192 1.695 0 2.794-.903 3.264-2.682-.623-.28-1.286-.52-1.985-.668h.497z"/>
</svg>
