<svg class="icon icon-threads" xmlns="http://www.w3.org/2000/svg" viewBox="0 0 20 20" aria-hidden="true" focusable="false">
  <path fill="currentColor" d="M14.743 9.26c-.08-.038-.163-.075-.247-.11C14.342 5.997 12.77 4.26 10.16 4.244h-.033c-1.563.001-2.837.627-3.636 1.77l1.44.99c.59-.9 1.516-1.09 2.2-1.09h.024c.85.006 1.493.25 1.912.726.304.344.508.82.609 1.42-.67-.107-1.39-.14-2.152-.095C8.002 8.142 6.45 9.567 6.535 11.676c.044 1.063.638 1.979 1.664 2.588.862.524 1.974.786 3.13.724 1.526-.082 2.726-.683 3.564-1.786.636-.804.988-1.845 1.066-3.156.69.416 1.2 1.009 1.497 1.757.474 1.2.498 3.23-.887 4.618-1.22 1.222-2.698 1.749-4.818 1.764-2.415-.017-4.24-.773-5.424-2.248C4.736 14.66 4.18 12.638 4.163 10.003c.018-2.637.573-4.657 1.65-6.003C6.996 2.523 8.82 1.766 11.236 1.75c2.43.017 4.28.779 5.495 2.268a8.97 8.97 0 0 1 1.678 3.964l1.661-.411a10.7 10.7 0 0 0-2.006-4.718C16.56 1.12 14.364.22 11.244 0 8.135.22 5.952 1.127 4.536 2.91 3.237 4.55 2.568 6.985 2.547 10v.003c.021 3.015.69 5.45 1.99 7.09 1.416 1.783 3.599 2.69 6.708 2.91 3.124-.204 5.319-1.11 6.733-2.924 1.653-2.007 1.6-4.545.946-6.205-.467-1.143-1.37-2.068-3.181-2.614zm-4.655 3.988c-1.097.06-2.245-.43-2.295-1.56-.037-.824.581-1.75 2.494-1.86.219-.013.433-.019.643-.019.605 0 1.171.059 1.687.171-.19 2.36-1.448 3.208-2.529 3.268z"/>
</svg>
