<svg xmlns="http://www.w3.org/2000/svg" viewBox="0 0 96 96" fill="none" aria-hidden="true">
  <circle cx="48" cy="48" r="35" stroke="#FF6B3D" stroke-width="3"/>
  <path d="M25.5 59.1c3.6-1.1 6.2-4.1 7-7.8l1-4.6c1-4.6 5.1-7.9 9.8-7.9h13.4c6.2 0 11.3 5 11.3 11.3v7.5" stroke="#FF6B3D" stroke-width="3" stroke-linecap="round" stroke-linejoin="round"/>
  <path d="M68 50.1c3.7-3.3 8.2-3.9 12.2-1.6-2.1 5.2-6.2 7.8-11.2 7" stroke="#FF6B3D" stroke-width="3" stroke-linecap="round" stroke-linejoin="round"/>
  <path d="M33.4 47c-4.8-1-7.7-4.5-8.2-9.2 5.6-.1 9.5 2.5 11.1 7.3" stroke="#FF6B3D" stroke-width="3" stroke-linecap="round" stroke-linejoin="round"/>
  <path d="M39.8 58.9v15M50.3 58.9v15M64.9 58.9v15" stroke="#FF6B3D" stroke-width="3" stroke-linecap="round"/>
  <path d="M39.8 73.9h-5.2M50.3 73.9h-5M64.9 73.9h-5.2" stroke="#FF6B3D" stroke-width="3" stroke-linecap="round"/>
  <path d="M60.6 45.7h.1" stroke="#FF6B3D" stroke-width="4" stroke-linecap="round"/>
</svg>
