<svg xmlns="http://www.w3.org/2000/svg" viewBox="0 0 96 96" fill="none" aria-hidden="true">
  <circle cx="48" cy="48" r="35" stroke="#FF6B3D" stroke-width="3"/>
  <path d="M31.5 55.5c-2.8-2.8-2.2-7.8 1.1-10.1 2.1-1.5 4.8-1.7 7.2-.7 2.2-3.9 6.6-6.1 11.2-5.3 5.8 1 10 5.9 10 11.7v1.7c3.2.7 5.3 3.5 5.3 6.8 0 3.8-3.1 6.9-6.9 6.9H41.1c-3.9 0-7.5-1.5-10.3-4.2" stroke="#FF6B3D" stroke-width="3" stroke-linecap="round" stroke-linejoin="round"/>
  <path d="M57.4 43.6c2.5-3.6 6.7-5 10.6-3.7-1 4.4-4.1 7.2-8 7.6" stroke="#FF6B3D" stroke-width="3" stroke-linecap="round" stroke-linejoin="round"/>
  <path d="M38.8 65.9v8.4M48.6 66.4v7.9M59.4 66.2v8.1" stroke="#FF6B3D" stroke-width="3" stroke-linecap="round"/>
  <path d="M34 47.7c-2-5.2.2-10.1 5.2-12.7 1.5 4.6.3 8.6-3.5 11.8" stroke="#FF6B3D" stroke-width="3" stroke-linecap="round" stroke-linejoin="round"/>
  <path d="M50.5 51.5h.1" stroke="#FF6B3D" stroke-width="4" stroke-linecap="round"/>
</svg>
