<svg xmlns="http://www.w3.org/2000/svg" viewBox="0 0 40 40" fill="none" aria-hidden="true">
  <path d="M13.6 13.4c-1.8-.2-3.3-1.7-3.3-3.5 0-1.9 1.5-3.4 3.4-3.4 1 0 1.9.4 2.5 1.1.6-.7 1.5-1.1 2.5-1.1 1.9 0 3.4 1.5 3.4 3.4 0 1.8-1.4 3.3-3.2 3.5l-5.3 5.3c.1 1.8-1.3 3.4-3.2 3.4C8.5 22.1 7 20.6 7 18.7c0-.9.4-1.8 1-2.4-.6-.6-1-1.5-1-2.4 0-1.9 1.5-3.4 3.4-3.4 1.5 0 2.8 1.1 3.2 2.9Z" stroke="#1B2254" stroke-width="1.75" stroke-linejoin="round"/>
  <path d="M26.4 21.3c1.8.2 3.3 1.7 3.3 3.5 0 1.9-1.5 3.4-3.4 3.4-1 0-1.9-.4-2.5-1.1-.6.7-1.5 1.1-2.5 1.1-1.9 0-3.4-1.5-3.4-3.4 0-1.8 1.4-3.3 3.2-3.5l5.3-5.3c-.1-1.8 1.3-3.4 3.2-3.4 1.9 0 3.4 1.5 3.4 3.4 0 .9-.4 1.8-1 2.4.6.6 1 1.5 1 2.4 0 1.9-1.5 3.4-3.4 3.4-1.5 0-2.8-1.1-3.2-2.9Z" stroke="#1B2254" stroke-width="1.75" stroke-linejoin="round"/>
</svg>
