<svg xmlns="http://www.w3.org/2000/svg" viewBox="0 0 40 40" fill="none" aria-hidden="true">
  <path d="M18.2 7.7c3.8.3 6.6 3.3 6.6 6.8 0 2.1-.9 3.8-2.5 5.1" stroke="#1B2254" stroke-width="1.8" stroke-linecap="round"/>
  <path d="M18 7.8c-2.4.4-4.2 2.2-4.2 4.6 0 2.7 2.2 4.7 5.6 4.7h2.2c3.7 0 6.8 3 6.8 6.8s-3 6.9-6.8 6.9h-4.1c-3 0-5.4-2.4-5.4-5.4s2.4-5.4 5.4-5.4h4.7" stroke="#1B2254" stroke-width="1.8" stroke-linecap="round" stroke-linejoin="round"/>
  <path d="M18 24.4h3.8c1.5 0 2.7 1.2 2.7 2.7s-1.2 2.7-2.7 2.7" stroke="#1B2254" stroke-width="1.8" stroke-linecap="round"/>
  <path d="M16 12.4c0 1.4 1.2 2.3 3.1 2.3" stroke="#1B2254" stroke-width="1.6" stroke-linecap="round"/>
  <path d="M15.3 26.4c0-1.2 1-2.1 2.3-2.1" stroke="#1B2254" stroke-width="1.6" stroke-linecap="round"/>
</svg>
