<svg xmlns="http://www.w3.org/2000/svg" viewBox="0 0 40 40" fill="none" aria-hidden="true">
  <path d="M12 12.5c2.2-2.6 5-3.9 8.1-3.9s5.9 1.3 8 3.9" stroke="#1B2254" stroke-width="1.8" stroke-linecap="round"/>
  <path d="M10.8 15.5c2.8 2.7 2.8 5.5 0 8.3" stroke="#1B2254" stroke-width="1.8" stroke-linecap="round"/>
  <path d="M29.3 15.5c-2.8 2.7-2.8 5.5 0 8.3" stroke="#1B2254" stroke-width="1.8" stroke-linecap="round"/>
  <path d="M14.2 15.6c3.4 2.8 3.4 5.7 0 8.8" stroke="#1B2254" stroke-width="1.8" stroke-linecap="round"/>
  <path d="M20 13.9c-3 4-3 8 0 12" stroke="#1B2254" stroke-width="1.8" stroke-linecap="round"/>
  <path d="M25.8 15.6c-3.4 2.8-3.4 5.7 0 8.8" stroke="#1B2254" stroke-width="1.8" stroke-linecap="round"/>
  <path d="M13.1 27.4c4.4 2.7 9.4 2.7 13.8 0" stroke="#1B2254" stroke-width="1.8" stroke-linecap="round"/>
</svg>
