<svg xmlns="http://www.w3.org/2000/svg" viewBox="0 0 40 40" fill="none" aria-hidden="true">
  <path d="M13.7 24.8c-3.5-4.4-1.5-10.9 4.1-13.2 2.3 5.3.8 10.9-4.1 13.2Z" stroke="#1B2254" stroke-width="1.8" stroke-linejoin="round"/>
  <path d="M13.9 24.5c1.4-4.3 2.6-7.1 4-9.3" stroke="#1B2254" stroke-width="1.6" stroke-linecap="round"/>
  <path d="M23 25.7c-3.1-3.6-1.5-8.9 3.2-11 2.1 4.4.8 9.1-3.2 11Z" stroke="#1B2254" stroke-width="1.8" stroke-linejoin="round"/>
  <path d="M23.2 25.4c1.1-3.1 2-5.2 3-6.9" stroke="#1B2254" stroke-width="1.6" stroke-linecap="round"/>
  <path d="M17.5 28.4c1.7 1.4 3.9 1.8 6.2 1" stroke="#1B2254" stroke-width="1.8" stroke-linecap="round"/>
  <path d="M28.4 27.7c1.8 1.6 1.4 4.2-.9 5-2.2-.9-2.6-3.4-.9-5l.9-.9.9.9Z" stroke="#1B2254" stroke-width="1.8" stroke-linejoin="round"/>
</svg>
